<svg aria-hidden="true" style="position: absolute; width: 0; height: 0; overflow: hidden;" version="1.1" xmlns="http://www.w3.org/2000/svg" xmlns:xlink="http://www.w3.org/1999/xlink">
<defs>
<symbol id="icon-heart" viewBox="0 0 32 32">
<path d="M15.991 7.561c-2.56-3.021-6.827-3.834-10.033-1.067-3.209 2.767-3.661 7.392-1.143 10.665 1.613 2.095 5.743 5.982 8.504 8.506 0.917 0.838 1.376 1.257 1.926 1.425 0.472 0.145 1.013 0.145 1.485 0 0.55-0.168 1.009-0.587 1.926-1.425 2.761-2.524 6.891-6.411 8.504-8.508 2.519-3.272 2.121-7.925-1.139-10.664-3.262-2.739-7.473-1.954-10.033 1.067z"></path>
</symbol>
<symbol id="icon-user" viewBox="0 0 32 32">
<path d="M15.191 5.384c-1.548 0.303-2.81 1.314-3.453 2.675l-0.012 0.029c-0.508 1.12-0.508 2.704 0 3.824 0.597 1.251 1.674 2.192 2.987 2.595l0.035 0.009c0.564 0.161 1.879 0.175 2.427 0.025 1.324-0.361 2.54-1.391 3.1-2.627 0.509-1.123 0.509-2.705 0.001-3.827-0.553-1.219-1.723-2.232-2.995-2.596-0.447-0.127-1.644-0.189-2.089-0.108zM14.96 21.367c-2.788 0.289-5.299 1.481-7.227 3.432-0.461 0.467-1.493 1.729-1.493 1.828 0 0.021 4.392 0.040 9.76 0.040s9.76-0.019 9.76-0.041c0-0.057-0.804-1.084-1.195-1.525-0.488-0.522-1.012-0.995-1.575-1.422l-0.031-0.022c-1.445-1.082-3.184-1.853-5.075-2.18l-0.071-0.010c-0.489-0.083-2.383-0.148-2.853-0.099z"></path>
</symbol>
<symbol id="icon-user-fill" viewBox="0 0 32 32">
<path stroke-linejoin="round" stroke-linecap="round" stroke-miterlimit="4" stroke-width="2.6667" d="M16 20c-4.227 0-7.987 2.040-10.379 5.208-0.515 0.681-0.773 1.023-0.764 1.483 0.007 0.356 0.229 0.805 0.509 1.025 0.363 0.284 0.865 0.284 1.869 0.284h17.528c1.004 0 1.507 0 1.868-0.284 0.28-0.22 0.504-0.669 0.511-1.025 0.008-0.46-0.249-0.8-0.764-1.483-2.393-3.167-6.152-5.208-10.379-5.208zM16 16c3.314 0 6-2.686 6-6s-2.686-6-6-6v0c-3.314 0-6 2.686-6 6s2.686 6 6 6v0z"></path>
</symbol>
<symbol id="icon-burger" viewBox="0 0 32 32">
<path d="M3.468 6.599c-0.329 0.116-0.757 0.554-0.872 0.891-0.196 0.575-0.068 1.124 0.361 1.553 0.495 0.496-0.829 0.45 13.043 0.45s12.548 0.046 13.043-0.45c0.304-0.303 0.45-0.643 0.45-1.043s-0.146-0.74-0.45-1.043c-0.495-0.496 0.833-0.451-13.066-0.446-11.035 0.004-12.294 0.013-12.509 0.088zM3.468 14.599c-0.329 0.116-0.757 0.554-0.872 0.891-0.196 0.575-0.068 1.124 0.361 1.553 0.495 0.496-0.829 0.45 13.043 0.45s12.548 0.046 13.043-0.45c0.304-0.303 0.45-0.643 0.45-1.043s-0.146-0.74-0.45-1.043c-0.495-0.496 0.833-0.451-13.066-0.446-11.035 0.004-12.294 0.013-12.509 0.088zM3.468 22.599c-0.329 0.116-0.757 0.554-0.872 0.891-0.196 0.575-0.068 1.124 0.361 1.553 0.495 0.496-0.829 0.45 13.043 0.45s12.548 0.046 13.043-0.45c0.304-0.303 0.45-0.643 0.45-1.043s-0.146-0.74-0.45-1.043c-0.495-0.496 0.833-0.451-13.066-0.446-11.035 0.004-12.294 0.013-12.509 0.088z"></path>
</symbol>
</defs>
</svg>
